<svg width="502" height="425" viewBox="0 0 502 425" fill="none" xmlns="http://www.w3.org/2000/svg">
<path d="M51.8936 425H19.8336C5.42469 425 -4.16428 410.107 1.7994 396.99L109.764 159.529L130.62 113.657C162.091 44.4385 231.111 0 307.148 0H341.535C429.641 0 501.064 71.4236 501.064 159.529V298.116V345C501.064 389.183 465.247 425 421.064 425H220.473C205.506 425 193.372 412.866 193.372 397.899V351.458C193.372 347.171 189.897 343.696 185.61 343.696C183.492 343.696 181.467 344.56 180.003 346.09L139.834 388.043L128.131 397.671C106.653 415.34 79.7051 425 51.8936 425Z" fill="white"/>
</svg>
