<svg width="26" height="26" viewBox="0 0 26 26" fill="none" xmlns="http://www.w3.org/2000/svg">
<g clip-path="url(#clip0_492_10306)">
<path d="M21.3728 10.1105H20.6018V10.0708H11.987V13.8996H17.3966C16.6074 16.1285 14.4867 17.7284 11.987 17.7284C8.81521 17.7284 6.24369 15.1568 6.24369 11.9851C6.24369 8.81346 8.81521 6.24192 11.987 6.24192C13.451 6.24192 14.7829 6.79422 15.7971 7.69636L18.5045 4.98893C16.795 3.39566 14.5082 2.41309 11.987 2.41309C6.70075 2.41309 2.41486 6.69899 2.41486 11.9851C2.41486 17.2714 6.70075 21.5572 11.987 21.5572C17.2731 21.5572 21.559 17.2714 21.559 11.9851C21.559 11.3433 21.493 10.7168 21.3728 10.1105Z" fill="#FBC02D"/>
<path d="M3.51855 7.52981L6.66345 9.83623C7.51443 7.7294 9.57531 6.24192 11.9869 6.24192C13.451 6.24192 14.7829 6.79422 15.7971 7.69636L18.5046 4.98893C16.795 3.39566 14.5082 2.41309 11.9869 2.41309C8.31031 2.41309 5.12187 4.48879 3.51855 7.52981Z" fill="#E53935"/>
<path d="M11.9864 21.5571C14.4589 21.5571 16.7054 20.6109 18.404 19.0722L15.4414 16.5652C14.4804 17.2932 13.2858 17.7283 11.9864 17.7283C9.49669 17.7283 7.3827 16.1408 6.5863 13.9253L3.46484 16.3303C5.04903 19.4302 8.26622 21.5571 11.9864 21.5571Z" fill="#4CAF50"/>
<path d="M21.3724 10.1105L21.3647 10.0708H20.6013H11.9865V13.8997H17.3961C17.0171 14.9703 16.3284 15.8935 15.4401 16.5659L15.4415 16.565L18.404 19.0719C18.1945 19.2624 21.5586 16.7713 21.5586 11.9853C21.5586 11.3434 21.4925 10.7169 21.3724 10.1105Z" fill="#1565C0"/>
</g>
<defs>
<clipPath id="clip0_492_10306">
<rect width="25" height="25" fill="white" transform="translate(0.5 0.498535)"/>
</clipPath>
</defs>
</svg>
